<svg width="20" height="20" viewBox="0 0 20 20" fill="none" xmlns="http://www.w3.org/2000/svg">
<path d="M17.8542 15.3108C17.5832 15.3134 17.3243 15.4232 17.1341 15.6162C16.9438 15.8092 16.8378 16.0697 16.8391 16.3407C16.8404 16.6117 16.9489 16.8711 17.141 17.0623C17.3331 17.2535 17.5931 17.3608 17.8641 17.3608C18.1351 17.3608 18.395 17.2535 18.5871 17.0623C18.7792 16.8711 18.8878 16.6117 18.8891 16.3407C18.8904 16.0697 18.7843 15.8092 18.5941 15.6162C18.4039 15.4232 18.1449 15.3134 17.8739 15.3108H17.8542ZM17.8542 17.2434C17.6765 17.2464 17.5018 17.1966 17.3524 17.1003C17.203 17.004 17.0855 16.8656 17.0147 16.7025C16.944 16.5394 16.9232 16.359 16.9549 16.1841C16.9867 16.0092 17.0696 15.8476 17.1932 15.7199C17.3168 15.5921 17.4755 15.5038 17.6493 15.4662C17.823 15.4287 18.004 15.4435 18.1693 15.5087C18.3347 15.574 18.477 15.6869 18.5782 15.833C18.6794 15.9792 18.735 16.152 18.7379 16.3298V16.3449C18.7429 16.578 18.6551 16.8036 18.4938 16.972C18.3324 17.1405 18.1108 17.2379 17.8777 17.243H17.8545M13.9195 15.0307H11.6922V11.5427C11.6922 10.7109 11.6774 9.64017 10.5338 9.64017C9.37373 9.64017 9.19624 10.5464 9.19624 11.4821V15.0305H6.96893V7.85763H9.10715V8.83788H9.13707C9.35106 8.472 9.66027 8.17102 10.0318 7.96698C10.4033 7.76294 10.8232 7.66349 11.2468 7.67921C13.5042 7.67921 13.9205 9.16409 13.9205 11.0958L13.9195 15.0307ZM4.45578 6.87714C4.20014 6.87719 3.95022 6.80143 3.73764 6.65944C3.52506 6.51745 3.35936 6.31562 3.26148 6.07945C3.16361 5.84329 3.13797 5.58341 3.1878 5.33267C3.23763 5.08193 3.36069 4.8516 3.54142 4.67081C3.72215 4.49001 3.95244 4.36687 4.20315 4.31695C4.45387 4.26703 4.71376 4.29258 4.94996 4.39037C5.18616 4.48815 5.38806 4.65378 5.53012 4.86632C5.67218 5.07885 5.74803 5.32873 5.74808 5.58437C5.74811 5.75411 5.71471 5.92219 5.64978 6.07902C5.58486 6.23585 5.48967 6.37836 5.36967 6.4984C5.24967 6.61845 5.1072 6.71368 4.95039 6.77867C4.79358 6.84365 4.62552 6.87711 4.45578 6.87714ZM5.56943 15.0307H3.3398V7.85763H5.56943V15.0307ZM15.0299 2.22368H2.22057C1.92984 2.2204 1.64969 2.33268 1.4417 2.53584C1.2337 2.73901 1.11488 3.01644 1.11133 3.30718V16.1697C1.11475 16.4606 1.23351 16.7382 1.4415 16.9416C1.64948 17.1449 1.92969 17.2574 2.22057 17.2543H15.0299C15.3214 17.258 15.6024 17.1458 15.8112 16.9424C16.02 16.7391 16.1396 16.4611 16.1436 16.1697V3.30625C16.1394 3.01494 16.0198 2.73719 15.811 2.53403C15.6022 2.33087 15.3213 2.21891 15.0299 2.22275M18.0169 16.4008C18.055 16.4012 18.0928 16.3937 18.128 16.3789C18.1631 16.364 18.1948 16.3421 18.2211 16.3145C18.2475 16.2869 18.2678 16.2542 18.281 16.2184C18.2941 16.1826 18.2998 16.1444 18.2976 16.1063C18.2976 15.8975 18.1716 15.7978 17.9131 15.7978H17.4955V16.891H17.6526V16.4145H17.8456L17.85 16.4203L18.1496 16.891H18.3176L17.9953 16.4038L18.0169 16.4008ZM17.8352 16.2913H17.6531V15.9217H17.8839C18.0032 15.9217 18.1391 15.9412 18.1391 16.0973C18.1391 16.2769 18.0016 16.2913 17.8343 16.2913" fill="white"/>
</svg>
