<svg width="20" height="20" viewBox="0 0 20 20" fill="none" xmlns="http://www.w3.org/2000/svg">
<path d="M16.1708 4.46141C15.0028 3.92667 13.7697 3.5473 12.5031 3.33301C12.3298 3.64285 12.173 3.96163 12.0333 4.28802C10.6841 4.08472 9.31207 4.08472 7.96289 4.28802C7.82315 3.96166 7.66632 3.64288 7.49307 3.33301C6.22565 3.54911 4.99177 3.92938 3.82258 4.4642C1.50144 7.89834 0.872209 11.2472 1.18682 14.5485C2.54614 15.5528 4.06761 16.3166 5.68509 16.8067C6.0493 16.3168 6.37158 15.7972 6.64851 15.2532C6.12252 15.0568 5.61485 14.8144 5.13137 14.5289C5.25862 14.4366 5.38306 14.3415 5.50332 14.2493C6.91012 14.9108 8.44558 15.2539 10.0002 15.2539C11.5548 15.2539 13.0903 14.9108 14.4971 14.2493C14.6187 14.3485 14.7432 14.4436 14.869 14.5289C14.3846 14.8149 13.876 15.0577 13.3491 15.2546C13.6257 15.7983 13.948 16.3176 14.3125 16.8067C15.9313 16.3186 17.454 15.5551 18.8136 14.5499C19.1827 10.7214 18.1829 7.40336 16.1708 4.46141ZM7.04702 12.5182C6.1703 12.5182 5.44599 11.7226 5.44599 10.7438C5.44599 9.76503 6.14513 8.96242 7.04422 8.96242C7.94332 8.96242 8.66203 9.76503 8.64665 10.7438C8.63127 11.7226 7.94052 12.5182 7.04702 12.5182ZM12.9534 12.5182C12.0752 12.5182 11.3537 11.7226 11.3537 10.7438C11.3537 9.76503 12.0529 8.96242 12.9534 8.96242C13.8538 8.96242 14.567 9.76503 14.5516 10.7438C14.5362 11.7226 13.8469 12.5182 12.9534 12.5182Z" fill="white"/>
</svg>
